<svg xmlns="http://www.w3.org/2000/svg" width="1284" height="576" viewBox="0 0 1284 576" version="1.1"><path d="M 622.539 189.042 C 557.975 199.211, 522.311 268.744, 551.522 327.500 C 577.570 379.894, 646.287 396.790, 693.218 362.340 C 698.978 358.112, 698.952 358.635, 693.697 352.629 L 689.436 347.758 682.183 352.450 C 601.643 404.552, 512.205 299.401, 576.977 228.762 C 625.801 175.515, 719 210.509, 719 282.088 L 719 287 726.145 287 L 733.291 287 732.706 277.250 C 729.434 222.673, 676.764 180.502, 622.539 189.042 M 632.800 232.678 L 632.500 238.357 627.500 239.541 C 597.947 246.538, 597.796 273.954, 627.250 285.073 L 633 287.244 633 303.759 L 633 320.274 626.750 319.754 C 623.313 319.468, 617.800 318.260, 614.500 317.070 C 611.200 315.880, 607.825 314.680, 607 314.402 C 605.537 313.909, 605.447 314.606, 605.928 322.722 C 606.029 324.441, 616.068 327.163, 624.981 327.888 L 632.500 328.500 633 335 L 633.500 341.500 636.500 341.500 L 639.500 341.500 640 335.010 L 640.500 328.521 646.509 326.904 C 675.973 318.975, 676.634 295.746, 647.747 283.404 L 640.500 280.307 640.500 263.404 L 640.500 246.500 646 246.855 C 649.025 247.050, 653.750 248.063, 656.500 249.105 C 659.250 250.147, 661.612 250.999, 661.750 250.999 C 661.888 251, 662 248.795, 662 246.100 L 662 241.199 657.250 240.145 C 654.638 239.565, 649.688 238.801, 646.250 238.447 L 640 237.804 640 232.402 L 640 227 636.550 227 L 633.100 227 632.800 232.678 M 626.450 248.407 C 615.490 253.181, 614.890 265.561, 625.256 273.071 C 632.729 278.484, 633 278.078, 633 261.500 C 633 245.446, 633.044 245.535, 626.450 248.407 M 640 304.941 C 640 320.318, 640.039 320.415, 645.493 318.741 C 659.308 314.501, 659.530 299.902, 645.885 292.941 C 639.926 289.901, 640 289.751, 640 304.941 M 706.772 313.644 L 706.500 332.288 697.250 332.084 C 686.081 331.837, 686.136 331.193, 696.260 343.589 C 700.792 349.138, 709.182 359.408, 714.905 366.411 L 725.310 379.145 727.575 376.822 C 728.820 375.545, 737.520 365.050, 746.908 353.500 L 763.977 332.500 753.988 332.215 L 744 331.930 744 313.465 L 744 295 725.522 295 L 707.044 295 706.772 313.644" stroke="none" fill="#B100E8" fill-rule="evenodd"/></svg>