<svg xmlns="http://www.w3.org/2000/svg" width="1284" height="576" viewBox="0 0 1284 576" version="1.1"><path d="M 625.625 155.554 C 564.576 167.684, 528.993 226.224, 551.788 277.027 C 557.519 289.799, 566.011 301.455, 587.467 326 C 593.958 333.425, 600.896 341.935, 602.885 344.911 L 606.500 350.321 606.831 374.309 C 607.149 397.337, 607.254 398.440, 609.461 401.898 C 613.748 408.612, 620.510 413, 626.571 413 C 628.286 413, 630.954 414.571, 634.211 417.500 L 639.216 422 648.075 422 L 656.933 422 661.835 417.646 C 665.742 414.177, 667.755 413.158, 671.748 412.628 C 677.955 411.804, 682.550 408.793, 686.479 402.974 L 689.500 398.500 690 374.500 C 690.373 356.599, 690.854 349.865, 691.895 348 C 694.092 344.061, 698.537 338.549, 711.660 323.485 C 743.768 286.630, 753.034 267.883, 751.687 242.500 C 748.597 184.267, 688.774 143.007, 625.625 155.554 M 628.500 174.486 C 576.216 186.047, 549.046 236.310, 573.357 276.500 C 577.883 283.983, 583.939 291.708, 600.010 310.500 C 622.411 336.695, 624.575 340.262, 626.378 353.969 C 629.497 377.682, 647.941 351.938, 649.641 321.500 C 650.389 308.098, 649.569 306.825, 641.768 309.284 C 624.083 314.859, 607.363 302.238, 599.835 277.634 C 591.889 251.662, 609.301 210.025, 635.705 191.859 L 639.940 188.945 642.328 192.728 C 645.342 197.502, 649.209 200.979, 665.966 213.978 C 691.364 233.682, 698.065 243.160, 698.821 260.453 C 699.721 281.021, 689.214 303.368, 677.621 305.543 C 671.256 306.737, 670.696 306.217, 669.412 297.915 C 667.066 282.738, 662.573 271.396, 652.363 254.874 C 645.931 244.466, 641.002 234.271, 641.001 231.372 C 641 229.088, 638.742 226.591, 637.658 227.675 C 634.727 230.606, 638.284 246.656, 645.931 265 C 658.586 295.357, 662.303 327.093, 655.947 350.500 C 652.501 363.193, 652.180 362.500, 661.500 362.500 L 669.500 362.500 670.599 354 C 672.348 340.471, 676.156 334.135, 696.395 311.073 C 725.293 278.145, 732.354 265.276, 732.371 245.500 C 732.412 199.111, 679.801 163.142, 628.500 174.486" stroke="none" fill="#B100E8" fill-rule="evenodd"/></svg>