<?xml version="1.0" standalone="no"?>
<!DOCTYPE svg PUBLIC "-//W3C//DTD SVG 20010904//EN"
 "http://www.w3.org/TR/2001/REC-SVG-20010904/DTD/svg10.dtd">
<svg version="1.0" xmlns="http://www.w3.org/2000/svg"
 width="1287.000000pt" height="579.000000pt" viewBox="0 0 1287.000000 579.000000"
 preserveAspectRatio="xMidYMid meet">
<metadata>
Created by Audry Darveau, 24/06/2024
</metadata>
<g transform="translate(0.000000,579.000000) scale(0.100000,-0.100000)"
fill="#5436EA" stroke="none">
<path d="M7210 5035 c-52 -8 -121 -18 -153 -21 -32 -4 -60 -11 -63 -15 -3 -5
-18 -9 -33 -9 -16 0 -53 -11 -82 -23 -30 -13 -69 -27 -88 -31 -30 -5 -98 -32
-256 -99 -116 -49 -330 -188 -416 -269 -19 -17 -79 -70 -134 -118 -55 -48
-130 -119 -166 -156 -65 -68 -264 -328 -276 -362 -4 -9 -16 -30 -27 -47 -12
-16 -27 -39 -34 -50 -62 -99 -90 -120 -183 -140 -112 -23 -242 -70 -351 -127
-110 -57 -283 -190 -342 -263 l-39 -48 -95 7 c-108 8 -273 -7 -379 -35 -87
-22 -224 -75 -238 -92 -5 -7 -32 -26 -60 -42 -125 -72 -224 -163 -303 -278
-91 -133 -132 -264 -132 -426 0 -156 31 -273 108 -403 63 -107 117 -166 225
-244 50 -36 97 -72 102 -79 19 -23 190 -103 265 -123 239 -65 526 -60 978 19
112 19 150 27 354 69 117 24 127 21 183 -56 22 -31 56 -76 75 -102 20 -26 54
-72 76 -103 35 -49 208 -220 344 -340 93 -82 233 -184 310 -225 19 -10 58 -33
86 -51 28 -17 64 -35 80 -39 16 -4 34 -10 39 -14 30 -21 231 -91 350 -122 22
-6 60 -17 85 -25 53 -17 302 -35 515 -37 232 -2 327 9 545 64 228 58 491 175
585 262 17 15 37 28 44 28 7 0 32 16 55 35 24 19 47 35 51 35 4 0 24 14 44 31
20 16 74 62 121 100 193 159 200 168 162 202 -26 24 -37 21 -65 -13 -14 -16
-36 -32 -50 -35 -14 -4 -35 -18 -48 -31 -12 -13 -27 -24 -33 -24 -6 0 -26 -14
-45 -30 -18 -17 -37 -30 -42 -30 -4 0 -20 -11 -36 -24 -15 -13 -42 -27 -60
-30 -18 -4 -44 -17 -58 -28 -28 -21 -201 -85 -320 -117 -61 -17 -194 -45 -335
-71 -25 -5 -124 -9 -221 -9 -166 -1 -186 1 -373 39 -108 22 -218 49 -243 60
-25 11 -51 20 -58 20 -14 0 -118 43 -150 62 -11 7 -51 28 -90 48 -100 52 -205
118 -240 149 -36 32 -92 71 -101 71 -13 0 -159 144 -234 231 -41 47 -86 106
-98 130 -13 24 -31 58 -39 74 -33 61 -34 66 -24 79 6 7 50 21 98 30 49 10 120
24 158 32 39 7 129 23 200 34 72 12 171 27 220 35 291 47 434 58 775 58 294 0
352 -2 479 -21 142 -22 239 -41 336 -67 55 -15 153 -30 145 -22 -21 20 -144
74 -240 106 -181 60 -370 101 -600 128 -197 23 -629 23 -870 -1 -310 -30 -733
-90 -780 -110 -42 -18 -99 84 -134 239 -8 33 -22 87 -31 120 -9 33 -22 94 -27
135 -14 96 -14 504 -1 595 14 94 51 230 78 285 12 25 27 71 34 103 7 32 23 70
35 84 l23 26 84 -27 c46 -16 135 -53 196 -84 62 -31 116 -53 120 -49 11 11
-46 65 -120 114 -70 45 -203 113 -223 113 -6 0 -17 6 -23 14 -10 12 -7 23 13
55 14 22 26 43 26 45 0 17 111 189 146 228 24 26 44 52 44 58 0 16 176 186
230 223 25 16 55 39 67 50 12 11 44 34 71 51 27 17 73 47 103 67 73 48 175
102 240 127 30 11 70 29 89 39 54 28 102 43 138 43 18 0 49 7 70 16 131 55
464 80 724 54 107 -11 144 -19 239 -51 31 -10 65 -19 75 -19 24 0 99 -29 189
-73 39 -19 84 -37 100 -41 17 -4 44 -18 60 -30 17 -13 44 -26 62 -30 17 -4 37
-14 45 -23 7 -9 31 -24 53 -35 22 -10 56 -28 75 -40 127 -77 185 -108 197
-104 20 8 16 23 -21 63 -18 21 -38 48 -45 61 -7 12 -31 34 -53 49 -23 14 -75
53 -115 87 -131 111 -164 136 -177 136 -7 0 -21 9 -31 20 -10 11 -22 20 -26
20 -4 0 -28 14 -52 30 -89 60 -293 157 -392 187 -27 9 -79 26 -115 39 -36 13
-73 24 -83 24 -17 0 -41 5 -172 36 -99 24 -541 29 -675 9z m-1840 -1462 c0 -5
-18 -62 -39 -128 -75 -228 -85 -308 -84 -655 1 -377 10 -435 110 -755 19 -60
38 -117 43 -126 12 -23 -24 -55 -70 -62 -19 -3 -116 -19 -215 -36 -99 -16
-223 -35 -275 -41 -52 -6 -128 -16 -168 -21 -130 -16 -377 -11 -472 10 -161
36 -330 136 -427 253 -49 60 -123 199 -123 232 0 12 -7 31 -15 42 -20 27 -20
181 0 220 8 16 15 36 15 44 0 28 41 123 73 169 47 68 135 158 197 200 77 53
127 77 233 112 75 25 115 31 217 36 72 3 159 0 204 -6 90 -13 101 -8 132 57
42 89 168 223 284 302 123 84 380 187 380 153z"/>
<path d="M6357 3200 c-43 -16 -117 -50 -165 -76 -84 -45 -86 -46 -58 -16 46
50 23 49 -42 -1 -67 -52 -89 -89 -98 -171 -12 -98 12 -95 215 23 176 102 198
113 224 109 67 -9 -33 -208 -262 -523 -79 -108 -80 -117 -40 -196 21 -42 40
-53 63 -36 8 7 63 84 121 171 126 190 244 343 340 441 81 83 112 104 121 80 3
-8 4 -25 0 -38 -10 -41 -108 -201 -206 -337 -53 -74 -104 -149 -114 -167 -20
-40 -21 -102 -2 -148 27 -63 41 -53 181 124 128 161 294 341 384 416 121 101
123 86 9 -51 -102 -123 -172 -230 -192 -292 -37 -117 -30 -190 25 -237 63 -52
139 -26 299 103 49 39 92 72 95 72 3 0 5 -11 5 -25 0 -71 55 -135 123 -142 71
-8 139 29 253 139 70 67 95 86 90 68 -36 -118 -37 -125 -26 -162 27 -92 118
-71 261 61 l66 60 7 -46 c7 -50 29 -83 56 -83 10 0 62 55 120 126 91 110 154
174 173 174 3 0 -17 -37 -43 -81 -51 -86 -76 -163 -65 -199 4 -11 17 -28 31
-36 22 -15 27 -14 66 5 24 11 75 50 115 86 l71 65 7 -37 c25 -134 130 -179
251 -108 67 39 174 151 174 181 l0 26 -27 -22 c-94 -71 -135 -94 -186 -98 -58
-5 -79 9 -91 60 -6 26 -2 29 83 73 144 74 211 144 211 218 0 44 -22 62 -75 61
-100 -2 -262 -124 -316 -239 -23 -48 -40 -67 -85 -97 -85 -58 -133 -47 -103
24 7 17 41 69 76 116 35 46 63 88 63 92 0 19 -44 60 -64 60 -35 0 -99 -50
-228 -178 l-118 -117 0 35 c0 28 12 48 56 100 135 157 357 458 398 537 28 56
18 83 -34 83 -60 0 -486 -569 -506 -677 -5 -26 -19 -43 -58 -72 -95 -72 -138
-85 -156 -51 -20 38 9 132 75 241 l35 56 47 -4 48 -4 42 64 c60 91 62 97 24
97 -39 0 -39 8 -1 55 38 48 39 75 5 75 -41 0 -82 -26 -114 -74 -29 -41 -32
-43 -92 -49 -38 -3 -72 -13 -88 -25 -29 -21 -76 -87 -85 -118 -6 -19 -3 -20
54 -16 37 3 60 0 60 -6 0 -16 -89 -129 -143 -183 -63 -63 -158 -126 -207 -139
-64 -17 -110 13 -110 72 0 19 15 30 79 60 104 49 173 105 201 162 26 55 21 88
-16 112 -82 54 -337 -118 -370 -250 -7 -30 -39 -57 -152 -128 -108 -68 -152
-63 -152 17 1 97 105 284 262 468 45 54 94 112 107 129 l25 30 -24 44 c-31 59
-53 71 -90 47 -69 -44 -265 -221 -379 -342 -68 -72 -126 -130 -128 -128 -2 3
26 56 63 118 82 141 144 266 144 293 0 35 -37 86 -62 86 -29 0 -132 -67 -202
-131 -30 -27 -98 -101 -152 -164 -53 -63 -99 -115 -100 -115 -2 0 13 35 32 78
90 193 98 229 69 299 -35 82 -58 88 -178 43z"/>
<path d="M9123 2792 c-59 -48 -133 -141 -133 -170 0 -12 2 -22 5 -22 3 0 28
18 56 40 73 57 79 55 79 -34 0 -68 -2 -76 -35 -119 -19 -25 -44 -48 -55 -52
-42 -13 -94 -145 -58 -145 7 0 43 32 79 71 l67 71 7 -51 c19 -138 97 -132 215
16 35 44 60 85 60 99 0 13 -3 24 -6 24 -3 0 -26 -18 -52 -40 -81 -72 -122 -62
-122 28 0 37 7 54 41 98 28 37 49 54 67 56 19 2 36 17 60 52 18 27 31 57 30
65 -7 34 -38 19 -117 -55 l-81 -76 0 79 c0 115 -24 130 -107 65z"/>
</g>
</svg>
