<svg xmlns="http://www.w3.org/2000/svg" width="1284" height="576" viewBox="0 0 1284 576" version="1.1"><path d="M 642.275 214.539 C 634.604 216.605, 626.113 221.194, 620.313 226.408 L 615.206 231 607.285 231 C 589.058 231, 574.153 240.170, 566.532 256.074 C 563.306 262.805, 562.802 263.334, 556.980 266.087 C 523.117 282.102, 527.661 337.123, 563.620 346.489 C 570.906 348.387, 703.482 348.761, 713.566 346.912 C 759.597 338.473, 761.037 274.629, 715.500 261.165 L 709.501 259.391 707.894 253.445 C 700.015 224.296, 670.663 206.893, 642.275 214.539 M 645.102 222.583 C 634.470 225.442, 624.332 232.919, 628.508 234.822 C 636.410 238.422, 629.553 244.781, 621 241.785 C 613.362 239.108, 598.665 239.641, 591.500 242.854 C 582.832 246.740, 571.249 260, 576.521 260 C 583.633 260, 579.707 268.486, 571.965 269.849 C 539.913 275.495, 532.905 323.867, 562.221 337.114 L 567.500 339.500 637.325 339.789 C 715.119 340.110, 714.642 340.145, 724.752 333.453 C 747.109 318.656, 744.235 286.259, 719.375 272.818 C 711.909 268.782, 709.571 268.766, 709.187 272.749 C 708.342 281.505, 701 277.739, 701 268.549 C 701 237.652, 673.416 214.969, 645.102 222.583 M 662.917 249.393 C 662.688 249.609, 658.274 250.506, 653.110 251.387 C 642.825 253.140, 641 254.074, 641 257.587 C 641 260.784, 643.673 261.974, 648.764 261.043 C 654.425 260.008, 654.267 260.855, 646.937 270.841 C 640.772 279.241, 639.900 282.293, 643.095 284.295 C 646.195 286.237, 649.469 283.989, 656 275.438 L 662.500 266.928 663.312 271.693 C 664.367 277.888, 668.798 280.358, 671.979 276.525 C 676.831 270.679, 668.091 244.513, 662.917 249.393 M 633.818 288.716 C 632.893 288.938, 629.336 293.209, 625.913 298.206 L 619.691 307.291 618.071 302.896 C 615.770 296.651, 609.030 296.263, 608.984 302.372 C 608.836 322.130, 612.933 327.016, 626.259 322.974 C 631.892 321.265, 637.288 319.642, 638.251 319.366 C 640.960 318.590, 642.280 315.392, 640.932 312.873 C 639.761 310.685, 633.839 310.566, 628.522 312.623 C 626.977 313.221, 627.335 312.306, 630.155 308.444 C 637.376 298.557, 640.139 293.961, 639.823 292.367 C 639.408 290.274, 635.987 288.194, 633.818 288.716" stroke="none" fill="#B100E8" fill-rule="evenodd"/></svg>